<svg clip-rule="evenodd" fill-rule="evenodd" stroke-linejoin="round" stroke-miterlimit="2" viewBox="0 0 600 100" xmlns="http://www.w3.org/2000/svg"><g fill-rule="nonzero"><path d="m.452 0h-.068v-.756h.068zm-.164-.411h-.11v.411h-.068v-.411h-.098v-.057h.098v-.128c0-.053.013-.095.039-.126s.066-.046.12-.046c.009 0 .018 0 .028.001.01.002.019.003.028.006l-.012.06c-.007-.002-.015-.004-.022-.005s-.016-.002-.025-.002c-.018 0-.033.003-.044.009-.012.006-.021.014-.027.025-.007.011-.011.024-.013.039-.003.015-.004.03-.004.047v.12h.11z" transform="matrix(114.135 0 0 114.135 -1.1012202 89.3668988)"/><path d="m.555-.234c0 .035-.006.068-.018.098-.013.03-.03.056-.052.078s-.048.039-.079.051c-.031.013-.064.019-.101.019-.036 0-.069-.006-.1-.019-.031-.012-.057-.029-.079-.051s-.039-.048-.051-.078c-.013-.03-.019-.063-.019-.098s.006-.068.019-.098c.012-.03.029-.056.051-.078s.048-.039.079-.052c.031-.012.064-.018.1-.018.037 0 .07.006.101.018.031.013.057.03.079.052s.039.048.052.078c.012.03.018.063.018.098zm-.072 0c0-.026-.004-.051-.012-.074-.009-.023-.021-.043-.036-.06s-.034-.03-.056-.04-.047-.015-.074-.015-.052.005-.073.015c-.022.01-.041.023-.056.04s-.027.037-.035.06c-.009.023-.013.048-.013.074s.004.05.013.073c.008.024.02.043.035.06s.034.031.056.04c.021.01.046.015.073.015s.052-.005.074-.015c.022-.009.041-.023.056-.04s.027-.036.036-.06c.008-.023.012-.047.012-.073z" transform="matrix(114.135 0 0 114.135 60.9882198 89.3668988)"/><path d="m.555-.234c0 .035-.006.068-.018.098-.013.03-.03.056-.052.078s-.048.039-.079.051c-.031.013-.064.019-.101.019-.036 0-.069-.006-.1-.019-.031-.012-.057-.029-.079-.051s-.039-.048-.051-.078c-.013-.03-.019-.063-.019-.098s.006-.068.019-.098c.012-.03.029-.056.051-.078s.048-.039.079-.052c.031-.012.064-.018.1-.018.037 0 .07.006.101.018.031.013.057.03.079.052s.039.048.052.078c.012.03.018.063.018.098zm-.072 0c0-.026-.004-.051-.012-.074-.009-.023-.021-.043-.036-.06s-.034-.03-.056-.04-.047-.015-.074-.015-.052.005-.073.015c-.022.01-.041.023-.056.04s-.027.037-.035.06c-.009.023-.013.048-.013.074s.004.05.013.073c.008.024.02.043.035.06s.034.031.056.04c.021.01.046.015.073.015s.052-.005.074-.015c.022-.009.041-.023.056-.04s.027-.036.036-.06c.008-.023.012-.047.012-.073z" transform="matrix(114.135 0 0 114.135 130.7247048 89.3668988)"/><path d="m.09-.365c0-.013 0-.029-.001-.049s-.002-.038-.003-.054h.065c.001.013.002.027.003.042s.001.028.001.038h.002c.013-.027.033-.05.06-.067.027-.016.057-.025.09-.025.009 0 .017 0 .024.001s.014.002.021.004l-.009.064c-.004-.001-.011-.003-.02-.004s-.019-.002-.028-.002c-.018 0-.035.003-.052.01s-.031.017-.043.031c-.013.015-.023.033-.03.055-.008.023-.012.05-.012.081v.24h-.068z" transform="matrix(114.135 0 0 114.135 200.4611898 89.3668988)"/><path d="m.16-.079v.079h-.068v-.756h.068v.369h.002c.02-.031.046-.054.078-.07.032-.015.065-.023.099-.023.037 0 .07.006.1.019.029.013.055.03.076.052s.037.048.049.078c.011.03.017.062.017.097s-.006.067-.017.097c-.012.03-.028.056-.049.078s-.047.039-.076.052c-.03.013-.063.019-.1.019-.034 0-.067-.008-.099-.023s-.058-.038-.078-.068zm.349-.155c0-.026-.004-.051-.012-.074s-.019-.043-.034-.06-.034-.03-.056-.04-.047-.015-.075-.015c-.026 0-.05.005-.072.014-.022.01-.041.023-.057.04s-.029.037-.037.06c-.009.023-.014.048-.014.075s.005.051.014.074c.008.024.021.043.037.06s.035.03.057.039c.022.01.046.015.072.015.028 0 .053-.005.075-.015.022-.009.041-.023.056-.04s.026-.036.034-.06c.008-.023.012-.047.012-.073z" transform="matrix(114.135 0 0 114.135 241.5497898 89.3668988)"/><path d="m.385-.302c0-.041-.011-.071-.032-.091s-.052-.03-.093-.03c-.028 0-.054.005-.078.015s-.044.023-.061.04l-.038-.045c.019-.019.045-.035.077-.048.031-.013.067-.019.107-.019.025 0 .049.004.071.01.022.007.041.018.058.032s.03.032.039.053.014.046.014.075v.205c0 .018.001.037.002.056s.003.036.006.049h-.061c-.002-.011-.004-.024-.005-.037s-.002-.026-.002-.039h-.002c-.021.031-.046.054-.072.067-.027.014-.06.021-.098.021-.018 0-.036-.002-.055-.007-.02-.005-.037-.014-.052-.025-.016-.011-.029-.026-.039-.044-.011-.018-.016-.04-.016-.066 0-.036.009-.065.028-.086.018-.021.042-.036.073-.047.031-.01.066-.017.106-.02.039-.003.08-.004.123-.004zm-.02.068c-.028 0-.056.001-.084.003-.029.003-.054.007-.077.014s-.042.018-.057.031-.022.031-.022.053c0 .017.003.031.01.042.006.011.014.021.025.027.011.008.023.013.036.015.013.003.026.005.039.005.024 0 .045-.004.064-.013.019-.008.034-.019.047-.034.013-.014.022-.03.029-.049s.01-.038.01-.059v-.035z" transform="matrix(114.135 0 0 114.135 314.2537848 89.3668988)"/><path d="m385.7022948 3.0808388h7.76118v86.28606h-7.76118z" stroke-width="114.135"/><path d="m414.4643148 3.0808388h7.76118v86.28606h-7.76118z" stroke-width="114.135"/><path d="m.376-.562v.562h-.171v-.562h-.2v-.146h.571v.146z" transform="matrix(114.135 0 0 114.135 432.7259148 89.3668988)"/><path d="m.715 0 .004-.501h-.003l-.184.501h-.12l-.179-.501h-.003l.004.501h-.161v-.708h.243l.161.454h.004l.154-.454h.247v.708z" transform="matrix(114.135 0 0 114.135 499.0383498 89.3668988)"/></g></svg>